<?xml version="1.0" encoding="UTF-8"?>
<!DOCTYPE svg PUBLIC "-//W3C//DTD SVG 1.1//EN" "http://www.w3.org/Graphics/SVG/1.1/DTD/svg11.dtd">
<!-- Creator: CorelDRAW 2017 -->
<svg xmlns="http://www.w3.org/2000/svg" xml:space="preserve" width="55.061mm" height="54.9931mm" version="1.1" style="shape-rendering:geometricPrecision; text-rendering:geometricPrecision; image-rendering:optimizeQuality; fill-rule:evenodd; clip-rule:evenodd"
viewBox="0 0 5506.1 5499.31"
 xmlns:xlink="http://www.w3.org/1999/xlink">
 <defs>
  <style type="text/css">
   <![CDATA[
    .fil0 {fill:#00599A}
   ]]>
  </style>
 </defs>
 <g id="Layer_x0020_1">
  <metadata id="CorelCorpID_0Corel-Layer"/>
  <path class="fil0" d="M-0 32.22l1290.96 0 0 334.08 -824.89 0 0 1113.61 639.29 0 0 329.96 -639.29 0 0 1563.17 -466.07 0 0 -3340.82zm3687.93 -32.22l624.6 0 -2518.8 5499.31 -624.62 0 2518.82 -5499.31zm1018.02 5483.32c-280.47,0 -494.26,-86.62 -641.36,-259.85 -147.1,-173.22 -228.91,-411.06 -245.4,-713.53l412.44 -111.36c13.76,214.47 55.68,387.7 125.8,519.68 70.12,131.99 186.28,197.98 348.52,197.98 120.99,0 212.41,-33.68 274.28,-101.05 61.86,-67.37 92.8,-164.3 92.8,-290.78 0,-137.49 -28.87,-251.59 -86.62,-342.33 -57.74,-90.74 -149.86,-191.11 -276.34,-301.09l-560.93 -494.93c-112.74,-98.99 -194.53,-205.55 -245.4,-319.65 -50.88,-114.11 -76.31,-253.66 -76.31,-418.64 0,-244.72 70.12,-434.45 210.35,-569.17 140.24,-134.73 331.34,-202.1 573.31,-202.1 263.96,0 463.32,70.11 598.05,210.34 134.72,140.24 215.85,357.45 243.34,651.67l-395.95 107.24c-13.75,-195.23 -51.56,-345.78 -113.42,-451.63 -61.87,-105.86 -172.55,-158.79 -332.02,-158.79 -118.23,0 -208.97,30.93 -272.22,92.8 -63.25,61.86 -94.86,153.28 -94.86,274.27 0,98.99 16.5,182.16 49.49,249.54 33,67.37 89.36,135.42 169.1,204.16l565.06 494.93c145.74,129.24 261.9,269.48 348.52,420.7 86.61,151.23 129.92,323.09 129.92,515.56 0,244.73 -74.24,438.58 -222.72,581.55 -148.49,142.98 -340.96,214.48 -577.43,214.48z"/>
 </g>
</svg>
